HIERARCHY
ROOT hip
{
  OFFSET 0 0 0
  CHANNELS 6 Xposition Yposition Zposition Zrotation Yrotation Xrotation
  JOINT abdomen
  {
    OFFSET 0 20.6881 -0.73152
    CHANNELS 3 Zrotation Xrotation Yrotation
    JOINT chest
    {
      OFFSET 0 11.7043 -0.48768
      CHANNELS 3 Zrotation Xrotation Yrotation
      JOINT neck
      {
        OFFSET 0 22.1894 -2.19456
        CHANNELS 3 Zrotation Xrotation Yrotation
        JOINT head
        {
          OFFSET -0.24384 7.07133 1.2192
          CHANNELS 3 Zrotation Xrotation Yrotation
          JOINT leftEye
          {
            OFFSET 4.14528 8.04674 8.04672
            CHANNELS 3 Zrotation Xrotation Yrotation
            End Site
            {
              OFFSET 1 0 0
            }
          }
          JOINT rightEye
          {
            OFFSET -3.6576 8.04674 8.04672
            CHANNELS 3 Zrotation Xrotation Yrotation
            End Site
            {
              OFFSET 1 0 0
            }
          }
        }
      }
      JOINT rCollar
      {
        OFFSET -2.68224 19.2634 -4.8768
        CHANNELS 3 Zrotation Xrotation Yrotation
        JOINT rShldr
        {
          OFFSET -8.77824 -1.95073 1.46304
          CHANNELS 3 Zrotation Xrotation Yrotation
          JOINT rForeArm
          {
            OFFSET -28.1742 -1.7115 0.48768
            CHANNELS 3 Zrotation Xrotation Yrotation
            JOINT rHand
            {
              OFFSET -22.5879 0.773209 7.07136
              CHANNELS 3 Zrotation Xrotation Yrotation
              JOINT rThumb1
              {
                OFFSET -1.2192 -0.487915 3.41376
                CHANNELS 3 Zrotation Xrotation Yrotation
                JOINT rThumb2
                {
                  OFFSET -3.37035 -0.52449 3.41376
                  CHANNELS 3 Zrotation Xrotation Yrotation
                  End Site
                  {
                    OFFSET -1.78271 -1.18214 1.43049
                  }
                }
              }
              JOINT rIndex1
              {
                OFFSET -7.75947 0.938293 5.60832
                CHANNELS 3 Zrotation Xrotation Yrotation
                JOINT rIndex2
                {
                  OFFSET -2.54057 -0.884171 1.56538
                  CHANNELS 3 Zrotation Xrotation Yrotation
                  End Site
                  {
                    OFFSET -1.62519 -0.234802 1.16502
                  }
                }
              }
              JOINT rMid1
              {
                OFFSET -8.24714 1.18213 3.41376
                CHANNELS 3 Zrotation Xrotation Yrotation
                JOINT rMid2
                {
                  OFFSET -3.10165 -0.590103 1.0647
                  CHANNELS 3 Zrotation Xrotation Yrotation
                  End Site
                  {
                    OFFSET -2.48547 -0.328903 0.83742
                  }
                }
              }
              JOINT rRing1
              {
                OFFSET -8.82822 0.546677 1.51678
                CHANNELS 3 Zrotation Xrotation Yrotation
                JOINT rRing2
                {
                  OFFSET -2.60934 -0.819778 -0.0198488
                  CHANNELS 3 Zrotation Xrotation Yrotation
                  End Site
                  {
                    OFFSET -2.33842 -0.294052 0.168128
                  }
                }
              }
              JOINT rPinky1
              {
                OFFSET -8.27202 -0.0477905 -0.4584
                CHANNELS 3 Zrotation Xrotation Yrotation
                JOINT rPinky2
                {
                  OFFSET -1.82734 -0.647385 -0.700984
                  CHANNELS 3 Zrotation Xrotation Yrotation
                  End Site
                  {
                    OFFSET -1.69225 -0.51767 -0.607171
                  }
                }
              }
            }
          }
        }
      }
      JOINT lCollar
      {
        OFFSET 2.68224 19.2634 -4.8768
        CHANNELS 3 Zrotation Xrotation Yrotation
        JOINT lShldr
        {
          OFFSET 8.77824 -1.95073 1.46304
          CHANNELS 3 Zrotation Xrotation Yrotation
          JOINT lForeArm
          {
            OFFSET 28.1742 -1.7115 0.48768
            CHANNELS 3 Zrotation Xrotation Yrotation
            JOINT lHand
            {
              OFFSET 22.5879 0.773209 7.07136
              CHANNELS 3 Zrotation Xrotation Yrotation
              JOINT lThumb1
              {
                OFFSET 1.2192 -0.487915 3.41376
                CHANNELS 3 Zrotation Xrotation Yrotation
                JOINT lThumb2
                {
                  OFFSET 3.37035 -0.52449 3.41376
                  CHANNELS 3 Zrotation Xrotation Yrotation
                  End Site
                  {
                    OFFSET 1.78271 -1.18214 1.43049
                  }
                }
              }
              JOINT lIndex1
              {
                OFFSET 7.75947 0.938293 5.60832
                CHANNELS 3 Zrotation Xrotation Yrotation
                JOINT lIndex2
                {
                  OFFSET 2.54057 -0.884171 1.56538
                  CHANNELS 3 Zrotation Xrotation Yrotation
                  End Site
                  {
                    OFFSET 1.62519 -0.234802 1.16502
                  }
                }
              }
              JOINT lMid1
              {
                OFFSET 8.24714 1.18213 3.41376
                CHANNELS 3 Zrotation Xrotation Yrotation
                JOINT lMid2
                {
                  OFFSET 3.10165 -0.590103 1.0647
                  CHANNELS 3 Zrotation Xrotation Yrotation
                  End Site
                  {
                    OFFSET 2.48547 -0.328903 0.83742
                  }
                }
              }
              JOINT lRing1
              {
                OFFSET 8.82822 0.546677 1.51678
                CHANNELS 3 Zrotation Xrotation Yrotation
                JOINT lRing2
                {
                  OFFSET 2.60934 -0.819778 -0.0198488
                  CHANNELS 3 Zrotation Xrotation Yrotation
                  End Site
                  {
                    OFFSET 2.33842 -0.294052 0.168128
                  }
                }
              }
              JOINT lPinky1
              {
                OFFSET 8.27202 -0.0477905 -0.4584
                CHANNELS 3 Zrotation Xrotation Yrotation
                JOINT lPinky2
                {
                  OFFSET 1.82734 -0.647385 -0.700984
                  CHANNELS 3 Zrotation Xrotation Yrotation
                  End Site
                  {
                    OFFSET 1.69225 -0.51767 -0.607171
                  }
                }
              }
            }
          }
        }
      }
    }
  }
  JOINT rButtock
  {
    OFFSET -8.77824 4.35084 1.2192
    CHANNELS 3 Zrotation Xrotation Yrotation
    JOINT rThigh
    {
      OFFSET 0 -1.70687 -2.19456
      CHANNELS 3 Zrotation Xrotation Yrotation
      JOINT rShin
      {
        OFFSET 0 -36.8199 0.73152
        CHANNELS 3 Zrotation Xrotation Yrotation
        JOINT rFoot
        {
          OFFSET 0.73152 -45.1104 -5.12064
          CHANNELS 3 Zrotation Xrotation Yrotation
          End Site
          {
            OFFSET -1.1221 -3.69964 12.103
          }
        }
      }
    }
  }
  JOINT lButtock
  {
    OFFSET 8.77824 4.35084 1.2192
    CHANNELS 3 Zrotation Xrotation Yrotation
    JOINT lThigh
    {
      OFFSET 0 -1.70687 -2.19456
      CHANNELS 3 Zrotation Xrotation Yrotation
      JOINT lShin
      {
        OFFSET 0 -36.8199 0.73152
        CHANNELS 3 Zrotation Xrotation Yrotation
        JOINT lFoot
        {
          OFFSET -0.73152 -45.1104 -5.12064
          CHANNELS 3 Zrotation Xrotation Yrotation
          End Site
          {
            OFFSET 1.1221 -3.69964 12.103
          }
        }
      }
    }
  }
}
MOTION
Frames:	5
Frame Time:	0.03333
-9.030200037523173 64.39650058746338 -1.5579999722831417 -29.293006896972656 71.96719360351562 -26.320053100585938 5.004208087921143 13.532015800476074 13.78419303894043 -0.380429208278656 -7.971066951751709 3.8232076168060303 3.0649421215057373 15.36070728302002 15.864396095275879 -6.043994426727295 -21.880088806152344 30.035993576049805 -0.0 0.0 -0.0 -0.0 0.0 -0.0 -0.0 0.0 -0.0 40.712989807128906 53.9843864440918 15.383902549743652 -28.302387237548828 -32.95730972290039 72.02471160888672 -0.5767600536346436 -21.059497833251953 -3.1021950244903564 -0.0 0.0 -0.0 -0.0 0.0 -0.0 -0.0 0.0 -0.0 7.730876445770264 5.474895000457764 0.41732463240623474 -0.0 0.0 -0.0 2.9054994583129883 0.9650753736495972 0.10300876200199127 -0.0 0.0 -0.0 10.278595924377441 0.7317469120025635 0.026285577565431595 -0.0 0.0 -0.0 2.221662759780884 -0.7335850596427917 -0.20831839740276337 -0.0 0.0 -0.0 2.4349923133850098 -1.206938624382019 -99.25199890136719 26.851490020751953 -25.854093551635742 -60.64768600463867 1.142330288887024 -28.845701217651367 4.439651966094971 -0.0 0.0 -0.0 -0.0 0.0 -0.0 -0.0 0.0 -0.0 -7.730876445770264 5.474895000457764 -0.41732463240623474 -0.0 0.0 -0.0 -2.9054994583129883 0.9650753736495972 -0.10300876200199127 -0.0 0.0 -0.0 -10.278595924377441 0.7317469120025635 -0.026285577565431595 -0.0 0.0 -0.0 -2.221662759780884 -0.7335850596427917 0.20831839740276337 -0.0 0.0 -0.0 0.4582735002040863 -13.877599716186523 8.613787651062012 -1.6824212074279785 68.84249114990234 2.801362991333008 -9.706134796142578 -13.571202278137207 -21.289894104003906 -0.0 0.0 -0.0 17.912109375 -67.67790985107422 -2.1230368614196777 1.2634607553482056 59.30690383911133 -0.5808539986610413 0.14931491017341614 12.687716484069824 0.7139201164245605
-10.734099950059317 64.59140181541443 -1.411999966512667 -31.005996704101562 73.4428939819336 -27.7500057220459 4.426153659820557 13.404290199279785 13.698797225952148 -0.23108620941638947 -8.048408508300781 3.7902908325195312 3.01084041595459 15.355707168579102 15.732197761535645 -5.953197479248047 -22.116497039794922 29.78999900817871 -0.0 0.0 -0.0 -0.0 0.0 -0.0 -0.0 0.0 -0.0 35.149497985839844 55.188297271728516 20.76340103149414 -28.317903518676758 -33.111602783203125 72.26519775390625 -0.6587347984313965 -22.177108764648438 -3.287525177001953 -0.0 0.0 -0.0 -0.0 0.0 -0.0 -0.0 0.0 -0.0 7.730876445770264 5.474895000457764 0.41732463240623474 -0.0 0.0 -0.0 2.9054994583129883 0.9650753736495972 0.10300876200199127 -0.0 0.0 -0.0 10.278595924377441 0.7317469120025635 0.026285577565431595 -0.0 0.0 -0.0 2.221662759780884 -0.7335850596427917 -0.20831839740276337 -0.0 0.0 -0.0 5.133915901184082 -2.179696798324585 -100.8530044555664 27.796091079711914 -29.41141128540039 -66.21410369873047 1.2234079837799072 -29.737979888916016 4.605632781982422 -0.0 0.0 -0.0 -0.0 0.0 -0.0 -0.0 0.0 -0.0 -7.730876445770264 5.474895000457764 -0.41732463240623474 -0.0 0.0 -0.0 -2.9054994583129883 0.9650753736495972 -0.10300876200199127 -0.0 0.0 -0.0 -10.278595924377441 0.7317469120025635 -0.026285577565431595 -0.0 0.0 -0.0 -2.221662759780884 -0.7335850596427917 0.20831839740276337 -0.0 0.0 -0.0 2.168955087661743 -14.939543724060059 12.02376651763916 -1.7722324132919312 69.44866943359375 2.8550877571105957 -9.30737018585205 -14.547298431396484 -19.761396408081055 -0.0 0.0 -0.0 13.08879280090332 -67.42919158935547 -8.274105072021484 1.0761233568191528 56.044395446777344 -0.3157460689544678 0.030774028971791267 15.070488929748535 1.2683683633804321
-12.57359987066593 64.88760113716125 -1.108999964344548 -33.2750129699707 75.1715087890625 -29.659971237182617 3.894840955734253 13.256096839904785 13.411792755126953 -0.10292496532201767 -8.096107482910156 3.7066333293914795 2.968906879425049 15.256486892700195 15.622306823730469 -5.892719745635986 -22.250194549560547 29.583200454711914 -0.0 0.0 -0.0 -0.0 0.0 -0.0 -0.0 0.0 -0.0 30.21190643310547 55.896888732910156 25.671602249145508 -28.34160041809082 -33.36939239501953 72.67089080810547 -0.7955725193023682 -24.471593856811523 -3.6673762798309326 -0.0 0.0 -0.0 -0.0 0.0 -0.0 -0.0 0.0 -0.0 7.730876445770264 5.474895000457764 0.41732463240623474 -0.0 0.0 -0.0 2.9054994583129883 0.9650753736495972 0.10300876200199127 -0.0 0.0 -0.0 10.278595924377441 0.7317469120025635 0.026285577565431595 -0.0 0.0 -0.0 2.221662759780884 -0.7335850596427917 -0.20831839740276337 -0.0 0.0 -0.0 7.483548641204834 -3.3831961154937744 -102.31499481201172 28.280399322509766 -32.69190216064453 -71.57099151611328 1.2443971633911133 -30.130794525146484 4.674491882324219 -0.0 0.0 -0.0 -0.0 0.0 -0.0 -0.0 0.0 -0.0 -7.730876445770264 5.474895000457764 -0.41732463240623474 -0.0 0.0 -0.0 -2.9054994583129883 0.9650753736495972 -0.10300876200199127 -0.0 0.0 -0.0 -10.278595924377441 0.7317469120025635 -0.026285577565431595 -0.0 0.0 -0.0 -2.221662759780884 -0.7335850596427917 0.20831839740276337 -0.0 0.0 -0.0 3.867110252380371 -15.932085037231445 14.999507904052734 -1.813792109489441 69.6697998046875 2.856386423110962 -9.006025314331055 -15.497102737426758 -18.616003036499023 -0.0 0.0 -0.0 8.695911407470703 -66.826904296875 -14.040203094482422 0.8918550610542297 52.067787170410156 -0.05303601175546646 -0.09027295559644699 17.770483016967773 1.589982032775879
-14.533599893911742 65.29189944267273 -0.9019999713927973 -37.75999450683594 76.88788604736328 -33.76999282836914 3.640852689743042 13.155503273010254 12.88700008392334 -0.14462275803089142 -8.03389835357666 3.561750650405884 3.05529522895813 15.064688682556152 15.639713287353516 -6.133296489715576 -22.155689239501953 29.57430076599121 -0.0 0.0 -0.0 -0.0 0.0 -0.0 -0.0 0.0 -0.0 26.530004501342773 56.108795166015625 29.602495193481445 -28.36559295654297 -33.69580841064453 73.20260620117188 -0.9966438412666321 -27.13107681274414 -4.128817558288574 -0.0 0.0 -0.0 -0.0 0.0 -0.0 -0.0 0.0 -0.0 7.730876445770264 5.474895000457764 0.41732463240623474 -0.0 0.0 -0.0 2.9054994583129883 0.9650753736495972 0.10300876200199127 -0.0 0.0 -0.0 10.278595924377441 0.7317469120025635 0.026285577565431595 -0.0 0.0 -0.0 2.221662759780884 -0.7335850596427917 -0.20831839740276337 -0.0 0.0 -0.0 9.509445190429688 -4.603992462158203 -103.72198486328125 28.44890022277832 -35.62080001831055 -76.37269592285156 1.3263022899627686 -30.818689346313477 4.809432506561279 -0.0 0.0 -0.0 -0.0 0.0 -0.0 -0.0 0.0 -0.0 -7.730876445770264 5.474895000457764 -0.41732463240623474 -0.0 0.0 -0.0 -2.9054994583129883 0.9650753736495972 -0.10300876200199127 -0.0 0.0 -0.0 -10.278595924377441 0.7317469120025635 -0.026285577565431595 -0.0 0.0 -0.0 -2.221662759780884 -0.7335850596427917 0.20831839740276337 -0.0 0.0 -0.0 5.390487194061279 -16.836807250976562 17.00731086730957 -1.7998313903808594 69.45045471191406 2.7899434566497803 -8.89051628112793 -15.750589370727539 -18.389999389648438 -0.0 0.0 -0.0 4.968319416046143 -65.72279357910156 -19.474605560302734 0.705996572971344 47.03600311279297 0.21702997386455536 -0.19957661628723145 21.78329086303711 1.5658382177352905
-16.56259993033018 65.73320031166077 -0.46899998051230796 -45.29703140258789 78.97190856933594 -40.82004928588867 3.6437926292419434 13.155200004577637 12.140193939208984 -0.2588666081428528 -7.939806938171387 3.3666908740997314 3.1397311687469482 14.844901084899902 15.663897514343262 -6.35763692855835 -22.07429313659668 29.58060073852539 -0.0 0.0 -0.0 -0.0 0.0 -0.0 -0.0 0.0 -0.0 23.82379913330078 56.0962028503418 32.60361099243164 -28.390594482421875 -34.1045036315918 73.87079620361328 -1.211220383644104 -29.89950942993164 -4.627895355224609 -0.0 0.0 -0.0 -0.0 0.0 -0.0 -0.0 0.0 -0.0 7.730876445770264 5.474895000457764 0.41732463240623474 -0.0 0.0 -0.0 2.9054994583129883 0.9650753736495972 0.10300876200199127 -0.0 0.0 -0.0 10.278595924377441 0.7317469120025635 0.026285577565431595 -0.0 0.0 -0.0 2.221662759780884 -0.7335850596427917 -0.20831839740276337 -0.0 0.0 -0.0 11.121016502380371 -5.720965385437012 -104.9889907836914 28.307703018188477 -38.26588821411133 -80.8670883178711 1.3590757846832275 -31.150493621826172 4.873082637786865 -0.0 0.0 -0.0 -0.0 0.0 -0.0 -0.0 0.0 -0.0 -7.730876445770264 5.474895000457764 -0.41732463240623474 -0.0 0.0 -0.0 -2.9054994583129883 0.9650753736495972 -0.10300876200199127 -0.0 0.0 -0.0 -10.278595924377441 0.7317469120025635 -0.026285577565431595 -0.0 0.0 -0.0 -2.221662759780884 -0.7335850596427917 0.20831839740276337 -0.0 0.0 -0.0 6.732204914093018 -17.60820960998535 18.01579475402832 -1.7416465282440186 68.84892272949219 2.668421983718872 -9.009510040283203 -15.594297409057617 -18.926902770996094 -0.0 0.0 -0.0 2.380772590637207 -64.44739532470703 -23.319110870361328 0.5575108528137207 41.68670654296875 0.44189193844795227 0.13716772198677063 24.224700927734375 0.4274844527244568
